<?xml version="1.0" standalone="no"?>
<!DOCTYPE svg PUBLIC "-//W3C//DTD SVG 20010904//EN"
 "http://www.w3.org/TR/2001/REC-SVG-20010904/DTD/svg10.dtd">
<svg version="1.0" xmlns="http://www.w3.org/2000/svg"
 width="2424.000000pt" height="464.000000pt" viewBox="0 0 2424.000000 464.000000"
 preserveAspectRatio="xMidYMid meet">
<metadata>
Created by potrace 1.16, written by Peter Selinger 2001-2019
</metadata>
<g transform="translate(0.000000,464.000000) scale(0.100000,-0.100000)"
fill="#000000" stroke="none">
<path d="M24200 4592 c-114 -126 -317 -349 -330 -362 -8 -8 -37 -40 -64 -70
-27 -30 -77 -84 -110 -121 -34 -36 -99 -108 -146 -159 -47 -52 -110 -122 -141
-155 -53 -57 -79 -86 -183 -200 -25 -27 -46 -53 -46 -57 0 -10 89 -67 118 -74
12 -3 22 -9 22 -13 0 -3 15 -15 34 -25 27 -14 33 -22 26 -35 -14 -26 -60 -129
-60 -135 0 -3 -18 -43 -40 -90 -37 -78 -85 -191 -131 -309 -11 -26 -23 -55
-29 -65 -5 -9 -28 -62 -50 -117 -23 -55 -45 -109 -50 -120 -19 -41 -93 -223
-136 -335 -25 -63 -49 -124 -54 -135 -5 -11 -26 -60 -45 -110 -20 -49 -43
-104 -51 -122 -8 -17 -14 -34 -14 -38 0 -5 -15 -42 -50 -120 -5 -11 -18 -42
-30 -70 -12 -27 -25 -59 -30 -70 -5 -11 -28 -67 -50 -125 -23 -58 -46 -109
-51 -115 -5 -5 -9 -15 -9 -22 0 -8 -17 -49 -37 -91 l-37 -77 -8 340 c-7 339
-30 913 -48 1182 -6 78 -10 149 -10 157 0 14 -36 16 -315 16 -219 0 -315 -3
-315 -11 0 -11 -92 -236 -115 -279 -7 -14 -16 -40 -20 -57 -3 -18 -10 -33 -15
-33 -5 0 -12 -15 -16 -32 -3 -18 -21 -65 -39 -105 -18 -39 -36 -82 -40 -95 -4
-13 -18 -47 -31 -76 -13 -29 -24 -59 -24 -67 0 -8 -4 -15 -9 -15 -5 0 -13 -14
-16 -32 -4 -18 -11 -39 -16 -48 -4 -8 -15 -31 -23 -50 -8 -19 -28 -66 -44
-105 -16 -38 -42 -104 -57 -145 -16 -41 -32 -79 -37 -84 -4 -6 -8 -16 -8 -24
0 -8 -6 -28 -14 -45 -35 -77 -91 -222 -149 -387 -3 -8 -6 12 -7 45 -1 66 -23
458 -45 805 -8 124 -21 335 -29 470 -9 135 -18 273 -22 308 l-7 62 -318 0
-319 0 0 -22 c1 -13 7 -104 15 -203 14 -168 24 -278 60 -675 8 -85 21 -240 29
-345 8 -104 18 -206 21 -225 3 -19 10 -91 15 -160 14 -176 30 -375 35 -440 5
-75 26 -337 34 -435 l6 -80 356 -3 356 -2 32 65 c17 36 31 68 31 70 0 3 14 34
30 70 17 36 30 68 30 71 0 4 16 40 35 81 19 41 35 76 35 78 0 2 18 42 40 89
22 47 40 87 40 90 0 3 11 30 25 60 14 30 25 57 25 60 0 4 22 55 70 161 22 49
99 247 124 320 16 44 32 89 37 100 5 11 17 47 28 80 l19 60 6 -105 c3 -58 10
-229 16 -380 6 -151 15 -331 20 -400 5 -69 14 -197 20 -285 6 -88 13 -188 16
-222 l6 -63 359 0 c227 0 359 4 359 10 0 5 16 43 35 84 19 41 35 80 35 86 0 5
4 10 9 10 5 0 12 11 15 24 5 22 39 102 81 191 39 85 86 191 171 389 52 120
104 238 114 262 11 24 20 46 20 49 0 3 12 32 26 63 15 31 41 91 59 133 18 41
44 100 57 130 37 80 64 139 133 294 63 140 103 227 155 340 15 33 42 94 60
135 18 41 52 117 76 168 24 52 44 95 44 97 0 4 68 155 80 176 4 9 25 56 45
105 50 122 49 121 115 78 65 -43 135 -84 142 -84 13 0 20 71 62 625 17 226 33
421 47 565 11 113 25 540 18 540 -3 0 -20 -17 -39 -38z"/>
<path d="M9530 3771 c-81 -30 -118 -52 -168 -101 -47 -46 -92 -120 -92 -151 0
-8 -5 -20 -11 -26 -17 -17 -14 -192 6 -248 61 -181 229 -269 442 -231 184 32
295 130 338 297 55 210 -44 399 -242 462 -67 22 -211 21 -273 -2z"/>
<path d="M7000 3670 c-124 -9 -386 -37 -415 -46 -11 -3 -51 -12 -90 -19 -183
-35 -177 -31 -190 -145 -4 -36 -11 -84 -16 -107 -5 -24 -13 -73 -19 -110 -5
-38 -19 -129 -31 -203 -12 -74 -27 -173 -34 -220 -14 -90 -34 -207 -59 -355
-22 -132 -55 -332 -76 -475 -25 -160 -80 -498 -116 -710 -13 -78 -27 -169 -67
-430 -8 -52 -20 -122 -26 -155 -30 -167 -71 -435 -71 -467 l0 -36 53 -5 c265
-26 349 -28 677 -24 195 3 387 10 425 16 39 6 131 17 205 25 207 22 413 72
555 135 96 43 129 59 186 93 36 21 74 46 85 56 10 9 37 30 58 46 56 42 155
148 199 214 56 84 102 187 133 298 25 89 28 115 28 264 0 182 -8 224 -68 355
-75 160 -254 312 -433 365 -24 7 -43 16 -43 20 0 8 36 27 70 35 57 15 170 71
247 121 107 72 246 224 268 295 4 13 11 29 15 34 15 20 49 143 60 222 10 69 9
100 -5 200 -9 65 -21 122 -26 127 -5 6 -9 17 -9 25 0 9 -19 53 -42 98 -45 90
-138 196 -220 251 -52 36 -226 122 -246 122 -7 0 -20 4 -30 9 -126 68 -562
105 -932 81z m483 -586 c116 -30 192 -88 238 -182 19 -39 23 -63 24 -147 0
-104 -14 -168 -47 -217 -10 -14 -18 -30 -18 -35 0 -5 -25 -32 -55 -60 -100
-95 -243 -145 -462 -163 -148 -12 -303 -13 -303 -2 0 9 23 154 56 357 14 88
34 220 44 293 10 74 21 137 25 140 11 11 202 29 324 31 75 1 134 -4 174 -15z
m-253 -1373 c30 -7 69 -18 85 -25 110 -49 135 -62 135 -68 0 -5 6 -8 14 -8 23
0 96 -88 122 -146 20 -45 24 -71 24 -150 0 -58 -6 -116 -16 -147 -90 -299
-316 -416 -811 -421 -94 0 -174 2 -178 5 -3 4 -1 40 5 80 7 41 20 130 30 199
27 176 46 299 65 415 8 55 21 139 27 187 10 82 12 87 37 91 53 9 408 0 461
-12z"/>
<path d="M1520 3639 c-47 -4 -98 -12 -115 -18 -16 -5 -46 -12 -65 -16 -64 -12
-214 -67 -310 -113 -184 -89 -346 -217 -490 -387 -66 -78 -160 -208 -160 -220
0 -4 -11 -21 -24 -38 -39 -54 -121 -218 -169 -343 -83 -214 -134 -395 -173
-607 -13 -74 -15 -151 -11 -455 3 -333 6 -374 25 -447 25 -98 68 -225 87 -262
8 -16 15 -33 15 -40 0 -6 3 -13 8 -15 4 -1 20 -30 36 -63 35 -71 149 -225 203
-275 40 -37 154 -126 188 -148 45 -28 187 -92 258 -117 159 -55 301 -74 532
-74 180 0 222 3 410 33 133 21 361 79 450 116 44 18 200 93 209 101 6 5 36 25
66 45 75 50 174 153 198 205 23 52 34 110 62 319 11 85 25 178 30 205 6 28 17
100 26 160 8 61 21 148 28 195 29 177 46 283 60 373 8 50 18 111 21 135 l8 42
-709 -2 -708 -3 -13 -75 c-7 -41 -22 -133 -33 -205 -12 -71 -25 -152 -31 -178
-18 -96 -45 -87 260 -87 l269 0 -5 -42 c-3 -24 -11 -74 -18 -113 -7 -38 -16
-90 -20 -114 -18 -113 -98 -286 -158 -346 -80 -77 -151 -99 -327 -99 -147 1
-233 19 -321 69 -257 143 -332 496 -239 1122 14 96 73 347 90 388 5 11 20 54
34 95 131 393 311 568 645 630 49 9 80 9 130 0 220 -40 320 -128 422 -375 18
-44 39 -111 39 -127 0 -17 24 -18 370 -18 l370 0 0 103 c0 149 -43 354 -95
454 -8 15 -15 31 -15 35 0 13 -74 133 -116 188 -23 30 -70 82 -105 115 -102
96 -163 135 -344 216 -167 74 -483 106 -775 78z"/>
<path d="M14095 3640 c-110 -13 -282 -55 -352 -86 -17 -8 -34 -14 -37 -14 -3
0 -41 -17 -84 -37 -240 -115 -419 -267 -607 -517 -119 -158 -264 -458 -329
-681 -10 -33 -22 -69 -27 -80 -5 -11 -16 -51 -24 -90 -9 -38 -23 -99 -31 -135
-69 -307 -70 -729 -1 -1015 21 -87 45 -167 56 -190 23 -48 71 -157 71 -162 0
-6 109 -170 135 -203 72 -90 294 -270 333 -270 6 0 12 -3 14 -7 3 -9 133 -63
211 -88 55 -19 162 -41 257 -55 81 -12 402 -12 490 -1 222 29 419 73 572 127
80 28 236 101 254 118 6 6 30 22 53 36 61 36 156 126 190 179 31 49 48 122 76
326 15 111 30 211 59 385 20 119 39 247 65 422 12 76 28 177 36 224 8 48 15
91 15 95 0 5 -312 9 -705 9 l-705 0 -4 -22 c-3 -13 -8 -36 -11 -53 -4 -16 -12
-68 -20 -115 -7 -47 -23 -138 -34 -202 -12 -64 -21 -126 -21 -137 0 -21 3 -21
270 -21 l269 0 -5 -52 c-3 -29 -8 -62 -10 -73 -3 -11 -12 -51 -19 -90 -35
-184 -99 -333 -176 -407 -75 -71 -147 -92 -319 -92 -99 1 -152 5 -200 19 -214
59 -341 222 -385 493 -29 173 -11 521 39 757 57 270 92 385 180 586 18 43 81
153 105 183 20 26 89 95 122 121 80 67 193 115 329 141 78 14 91 14 175 -2 49
-9 95 -20 100 -24 6 -4 26 -13 45 -20 19 -8 42 -20 50 -28 57 -51 111 -110
121 -134 6 -15 15 -28 20 -28 5 0 9 -4 9 -10 0 -5 11 -34 25 -64 14 -30 25
-61 25 -70 0 -8 4 -17 9 -20 5 -3 12 -23 15 -43 15 -81 -26 -73 388 -73 l371
0 -6 138 c-11 287 -110 528 -302 736 -70 75 -249 191 -360 232 -114 43 -125
46 -265 74 -66 14 -422 20 -515 10z"/>
<path d="M4410 2773 c-14 -2 -66 -13 -116 -23 -308 -65 -628 -257 -809 -485
-22 -27 -42 -52 -45 -55 -29 -27 -154 -252 -186 -335 -111 -286 -152 -643
-105 -911 10 -60 29 -140 41 -179 21 -64 74 -186 92 -210 5 -5 29 -39 54 -75
64 -89 87 -114 174 -178 76 -57 212 -132 240 -132 9 0 20 -4 25 -9 6 -5 30
-14 55 -19 25 -6 63 -15 85 -21 107 -29 445 -22 584 11 66 15 211 58 246 71
54 22 219 109 270 142 134 90 281 240 373 380 53 80 142 251 142 271 0 8 4 22
9 32 27 50 74 217 97 342 25 141 23 431 -5 565 -25 119 -53 215 -63 215 -5 0
-8 7 -8 15 0 8 -18 49 -41 92 -130 247 -378 426 -673 487 -70 15 -365 21 -436
9z m241 -604 c49 -24 61 -33 103 -75 42 -41 101 -155 117 -224 16 -71 17 -324
0 -420 -61 -364 -205 -622 -401 -718 -50 -24 -66 -27 -165 -27 -99 0 -116 3
-166 27 -109 53 -197 188 -224 345 -8 45 -17 94 -21 108 -3 14 -1 60 4 103 6
42 16 122 22 177 6 55 15 114 20 130 23 82 83 261 89 265 3 3 17 27 31 53 53
103 175 211 283 251 109 41 235 43 308 5z"/>
<path d="M18865 2759 c-60 -11 -139 -29 -175 -41 -36 -12 -69 -23 -75 -24 -55
-11 -327 -154 -388 -205 -174 -143 -233 -206 -324 -342 -225 -337 -321 -829
-243 -1241 35 -187 139 -387 269 -517 201 -200 518 -299 859 -268 70 6 147 15
172 19 76 15 144 31 165 40 11 5 34 11 50 15 17 4 44 13 60 20 135 60 173 80
251 129 49 30 105 69 124 86 60 53 210 203 210 210 0 4 14 25 31 46 31 39 120
188 151 254 48 100 76 185 103 301 9 41 21 91 26 111 19 73 29 304 19 440 -9
133 -23 205 -62 328 -78 245 -266 453 -509 563 -118 54 -122 55 -235 77 -136
26 -322 26 -479 -1z m290 -593 c51 -24 145 -110 145 -133 0 -7 4 -13 8 -13 25
0 77 -177 86 -290 6 -81 -2 -180 -28 -329 -19 -105 -34 -160 -78 -276 -119
-311 -323 -468 -553 -426 -174 32 -285 170 -326 405 -22 129 6 389 66 600 51
180 171 351 297 423 115 65 290 83 383 39z"/>
<path d="M17325 2751 c-132 -25 -216 -57 -300 -114 -22 -15 -51 -34 -65 -43
-55 -37 -210 -209 -270 -299 -35 -52 -64 -94 -66 -93 -1 2 2 41 6 88 33 343
40 401 45 410 4 7 -109 10 -318 10 -298 0 -325 -1 -331 -17 -4 -10 -14 -94
-21 -188 -8 -93 -17 -183 -21 -200 -3 -16 -12 -77 -20 -135 -32 -238 -54 -367
-130 -775 -64 -344 -87 -466 -109 -570 -8 -38 -72 -370 -79 -410 -3 -16 -12
-61 -21 -100 -8 -38 -15 -82 -15 -97 l0 -28 374 0 374 0 10 63 c11 69 46 264
67 372 7 39 21 108 29 155 38 202 106 521 116 545 5 11 12 36 16 55 11 54 80
216 124 291 37 62 100 140 175 214 91 90 214 133 408 142 70 3 130 10 133 14
3 5 12 46 20 91 9 46 22 115 30 153 8 39 23 117 34 175 10 58 28 148 38 200
11 52 18 97 16 99 -12 13 -162 8 -249 -8z"/>
<path d="M9135 2698 c-2 -7 -11 -53 -19 -103 -8 -49 -22 -128 -31 -175 -9 -47
-23 -116 -30 -155 -7 -38 -27 -144 -44 -235 -18 -91 -39 -201 -46 -245 -23
-126 -52 -283 -70 -375 -40 -203 -79 -407 -100 -525 -12 -65 -77 -410 -115
-605 -5 -25 -9 -55 -9 -67 l-1 -23 374 0 373 0 6 43 c3 23 16 92 27 152 27
140 44 234 69 365 10 58 26 141 34 185 9 44 23 118 31 165 9 47 29 157 46 245
17 88 40 212 51 275 11 63 27 147 35 185 31 159 43 224 58 310 8 50 20 110 25
135 6 25 20 99 31 165 12 66 28 152 36 192 8 40 14 79 14 88 0 13 -43 15 -370
15 -288 0 -372 -3 -375 -12z"/>
<path d="M10375 2698 c-2 -7 -8 -42 -14 -78 -13 -81 -53 -293 -81 -420 -5 -25
-9 -60 -10 -77 l0 -33 533 0 c529 0 532 0 502 -19 -16 -11 -46 -34 -65 -51
-19 -17 -64 -57 -100 -88 -130 -113 -525 -515 -717 -729 -49 -56 -205 -223
-299 -322 -190 -201 -212 -226 -217 -256 -3 -16 -12 -66 -20 -110 -19 -98 -57
-315 -57 -321 0 -2 467 -4 1039 -4 l1038 0 12 63 c7 34 16 80 21 102 5 22 19
90 30 150 12 61 25 126 30 145 18 68 30 142 24 151 -3 5 -242 9 -577 9 -478 1
-569 3 -554 14 86 66 470 440 647 631 36 39 124 133 195 209 72 76 138 148
148 160 18 20 174 185 318 336 62 66 66 73 76 137 6 37 25 142 42 233 17 91
31 168 31 173 0 4 -443 7 -985 7 -780 0 -986 -3 -990 -12z"/>
</g>
</svg>
